<svg width="589" height="382" viewBox="0 0 589 382" fill="none" xmlns="http://www.w3.org/2000/svg">
<path d="M457.968 216.562L441.637 225.792L467.908 273.365C473.588 276.773 478.795 275.731 480.689 274.785C486.369 274.217 486.369 266.974 485.659 263.424L457.968 216.562Z" fill="#9C8487"/>
<path d="M182.473 74.554L165.432 44.0224C156.438 48.2826 136.178 54.2469 127.09 44.0224C120.226 35.0286 112.179 15.4788 134.9 9.2305H209.454C214.188 10.6506 223.655 16.0469 223.655 26.2714C223.655 31.715 221.525 42.8863 213.004 44.0224H186.733L199.513 66.0336L182.473 74.554Z" fill="#9C8487"/>
<path d="M352.882 74.554L323.77 22.7212C322.113 15.6208 321.924 1.13606 334.421 0H411.105C419.625 3.31351 435.388 14.2008 430.276 31.2417C426.252 41.1822 413.803 58.0811 396.194 46.1525C395.011 42.1289 395.484 33.7978 406.845 32.6618C411.815 29.3482 418.773 21.8692 406.845 18.461H340.811L369.923 66.0336L352.882 74.554Z" fill="#9C8487"/>
<path d="M249.927 138.458L228.626 102.246H358.563L348.622 83.7851C346.35 78.6729 349.096 75.5014 350.753 74.5547L370.634 63.1942C375.178 62.0582 377.734 64.6143 378.444 66.0344L460.808 208.752C463.649 212.728 461.519 216.089 460.098 217.273L441.637 228.633C435.957 231.473 432.17 226.976 430.987 224.373L390.515 155.499L324.481 269.815L303.89 231.473L358.563 138.458H249.927Z" fill="#2BD35C"/>
<path fill-rule="evenodd" clip-rule="evenodd" d="M118.569 381.999C183.664 381.999 236.435 329.229 236.435 264.133C236.435 199.037 183.664 146.267 118.569 146.267C53.4727 146.267 0.702148 199.037 0.702148 264.133C0.702148 329.229 53.4727 381.999 118.569 381.999ZM118.568 349.337C165.626 349.337 203.773 311.19 203.773 264.133C203.773 217.076 165.626 178.928 118.568 178.928C71.5112 178.928 33.3638 217.076 33.3638 264.133C33.3638 311.19 71.5112 349.337 118.568 349.337Z" fill="#5C6474"/>
<path d="M221.051 322.355C212.157 338.011 199.794 351.42 184.912 361.555C170.029 371.69 153.022 378.28 135.197 380.82C117.371 383.361 99.2008 381.783 82.0797 376.209C64.9586 370.635 49.3422 361.212 36.4289 348.664C23.5156 336.116 13.6488 320.777 7.58564 303.823C1.5225 286.869 -0.575758 268.751 1.45189 250.86C3.47954 232.969 9.5792 215.78 19.2827 200.613C28.9863 185.446 42.0357 172.703 57.4296 163.363L74.3735 191.29C63.2459 198.042 53.8129 207.253 46.7986 218.217C39.7843 229.18 35.3751 241.605 33.9093 254.538C32.4436 267.471 33.9604 280.568 38.3432 292.823C42.726 305.079 49.8584 316.167 59.1929 325.238C68.5274 334.308 79.8159 341.119 92.1921 345.148C104.568 349.178 117.703 350.318 130.589 348.482C143.474 346.646 155.767 341.882 166.525 334.556C177.283 327.23 186.22 317.536 192.649 306.22L221.051 322.355Z" fill="#34444C"/>
<path fill-rule="evenodd" clip-rule="evenodd" d="M470.746 381.999C535.842 381.999 588.613 329.229 588.613 264.133C588.613 199.037 535.842 146.267 470.746 146.267C405.65 146.267 352.88 199.037 352.88 264.133C352.88 329.229 405.65 381.999 470.746 381.999ZM470.746 349.337C517.803 349.337 555.951 311.19 555.951 264.133C555.951 217.076 517.803 178.928 470.746 178.928C423.689 178.928 385.542 217.076 385.542 264.133C385.542 311.19 423.689 349.337 470.746 349.337Z" fill="#5C6474"/>
<path d="M573.229 322.355C564.335 338.011 551.972 351.42 537.089 361.555C522.207 371.69 505.2 378.28 487.375 380.82C469.549 383.361 451.378 381.783 434.257 376.209C417.136 370.635 401.52 361.212 388.607 348.664C375.693 336.116 365.827 320.777 359.763 303.823C353.7 286.869 351.602 268.751 353.63 250.86C355.657 232.969 361.757 215.78 371.46 200.613C381.164 185.446 394.213 172.703 409.607 163.363L426.551 191.29C415.424 198.042 405.991 207.253 398.976 218.217C391.962 229.18 387.553 241.605 386.087 254.538C384.621 267.471 386.138 280.568 390.521 292.823C394.904 305.079 402.036 316.167 411.371 325.238C420.705 334.308 431.994 341.119 444.37 345.148C456.746 349.178 469.881 350.318 482.766 348.482C495.652 346.646 507.945 341.882 518.703 334.556C529.461 327.23 538.398 317.536 544.827 306.22L573.229 322.355Z" fill="#34444C"/>
<path fill-rule="evenodd" clip-rule="evenodd" d="M199.744 120.708L178.213 84.4959C176.792 81.4191 175.514 74.8394 181.763 73.1353L199.744 63.9048C202.12 63.1947 207.13 62.2007 208.163 63.9048L228.299 99.406C231.112 100.693 233.601 102.854 235.326 105.891L322.858 259.945C328.775 270.359 321.254 283.283 309.277 283.283H134.213C122.236 283.283 114.715 270.359 120.632 259.945L199.744 120.708ZM221.525 156.21L168.272 248.515H275.488L221.525 156.21Z" fill="#04B34C"/>
</svg>
