<svg width="646" height="383" viewBox="0 0 646 383" fill="none" xmlns="http://www.w3.org/2000/svg">
<path fill-rule="evenodd" clip-rule="evenodd" d="M474.421 382.842C512.761 382.842 543.842 351.761 543.842 313.421C543.842 275.081 512.761 244 474.421 244C436.081 244 405 275.081 405 313.421C405 351.761 436.081 382.842 474.421 382.842ZM474.422 341.278C490.051 341.278 502.72 328.806 502.72 313.421C502.72 298.036 490.051 285.564 474.422 285.564C458.792 285.564 446.123 298.036 446.123 313.421C446.123 328.806 458.792 341.278 474.422 341.278Z" fill="#5C6474"/>
<path d="M517.01 337.617C526.825 343.192 530.417 355.978 522.233 363.753C519.524 366.326 516.603 368.685 513.496 370.801C504.73 376.77 494.714 380.651 484.215 382.147C473.716 383.644 463.014 382.714 452.93 379.431C442.846 376.148 433.648 370.599 426.042 363.208C418.437 355.818 412.625 346.783 409.054 336.797C405.483 326.812 404.247 316.141 405.442 305.603C406.636 295.066 410.228 284.942 415.944 276.009C417.97 272.842 420.243 269.855 422.738 267.073C430.274 258.669 443.158 261.893 449.013 271.544L452.859 277.882C456.59 284.032 454.253 291.979 450.377 298.038C448.027 301.711 446.55 305.874 446.059 310.207C445.568 314.539 446.076 318.927 447.544 323.033C449.012 327.138 451.402 330.853 454.529 333.892C457.656 336.931 461.438 339.212 465.584 340.562C469.731 341.912 474.131 342.294 478.448 341.679C482.765 341.064 486.883 339.468 490.487 337.014C496.433 332.965 504.309 330.401 510.564 333.954L517.01 337.617Z" fill="#34444C"/>
<ellipse cx="474.342" cy="313" rx="28.5" ry="29" fill="#E9E3D5"/>
<path fill-rule="evenodd" clip-rule="evenodd" d="M149.421 382.842C187.761 382.842 218.842 351.761 218.842 313.421C218.842 275.081 187.761 244 149.421 244C111.081 244 80 275.081 80 313.421C80 351.761 111.081 382.842 149.421 382.842ZM149.422 341.278C165.051 341.278 177.72 328.806 177.72 313.421C177.72 298.036 165.051 285.564 149.422 285.564C133.792 285.564 121.123 298.036 121.123 313.421C121.123 328.806 133.792 341.278 149.422 341.278Z" fill="#5C6474"/>
<path d="M192.01 337.617C201.825 343.192 205.417 355.978 197.233 363.753C194.524 366.326 191.603 368.685 188.496 370.801C179.73 376.77 169.714 380.651 159.215 382.147C148.716 383.644 138.014 382.714 127.93 379.431C117.846 376.148 108.648 370.599 101.042 363.208C93.4367 355.818 87.6253 346.783 84.0542 336.797C80.4832 326.812 79.2473 316.141 80.4416 305.603C81.6358 295.066 85.2284 284.942 90.9436 276.009C92.9695 272.842 95.2431 269.855 97.7381 267.073C105.274 258.669 118.158 261.893 124.013 271.544L127.859 277.882C131.59 284.032 129.253 291.979 125.377 298.038C123.027 301.711 121.55 305.874 121.059 310.207C120.568 314.539 121.076 318.927 122.544 323.033C124.012 327.138 126.402 330.853 129.529 333.892C132.656 336.931 136.438 339.212 140.584 340.562C144.731 341.912 149.131 342.294 153.448 341.679C157.765 341.064 161.883 339.468 165.487 337.014C171.433 332.965 179.309 330.401 185.564 333.954L192.01 337.617Z" fill="#34444C"/>
<ellipse cx="149.342" cy="313" rx="28.5" ry="29" fill="#E9E3D5"/>
<path d="M485.5 143.016H447.5V181.016H485.5V143.016Z" fill="#C5324F"/>
<path d="M287.5 105.016H408V79.5156C408 69.9156 396.333 65.1823 390.5 64.0156H287.5V105.016Z" fill="#87F8F4"/>
<path d="M636 273.516V181.016H485.5V205.516H508C517 206.682 537.4 212.416 547 226.016L574 273.516H605H636Z" fill="#FFF9EB"/>
<path d="M646 279.516C644 273.916 638.5 273.182 636 273.516H605C602.333 274.349 597 276.716 597 279.516V312.516H636C639.6 312.516 644.167 308.849 646 307.016V279.516Z" fill="#596775"/>
<path d="M550 307.016C551.6 310.216 555 312.016 556.5 312.516H597V279.516C597 276.716 602.333 274.349 605 273.516H574L547 226.016C537.4 212.416 517 206.682 508 205.516H485.5V181.016H447.5V205.516C427.1 203.916 408.667 218.516 402 226.016L372.5 274.016H263C253 254.416 230.167 246.849 220 245.516L52 244.516V241.516V181.016H13V271.515V274.016H29C31.5 274.182 36.5 275.716 36.5 280.516V312.516H47.5C49.5 311.716 50.3333 310.849 50.5 310.516L64 288.516C67.2 285.316 73.6667 284.182 76.5 284.016H215.5C219.1 284.016 223.333 287.016 225 288.516C228.667 293.849 236.2 305.016 237 307.016C237.8 309.016 241 311.516 242.5 312.516H395C397.4 310.916 399 308.182 399.5 307.016L430.5 254.016C433.7 247.616 441.5 245.682 445 245.516H508C512 245.516 517.333 251.182 519.5 254.016L550 307.016Z" fill="#D3CDBF"/>
<path d="M52 241.516V244.516L220 245.516C230.167 246.849 253 254.416 263 274.016H372.5L402 226.016C408.667 218.516 427.1 203.916 447.5 205.516V181.016H52V241.516Z" fill="#FFF9EB"/>
<path d="M408 105.016H287.5V64.0156H263C256.2 64.0156 251.167 74.349 249.5 79.5156V125.016C249.5 136.616 261.167 141.516 267 142.516H395C402.6 142.516 406.833 133.849 408 129.516V105.016Z" fill="#00D3D8"/>
<path d="M197 143.016C208.2 139.016 210 129.349 209.5 125.016V105.016H90V64.0156H69C60.5531 64.0156 54.8329 70.8322 52 76.1607V129.516C52 136.316 63.3333 141.349 69 143.016H197Z" fill="#00D3D8"/>
<path d="M209.5 79.5156C209.1 71.1156 199 65.6823 194 64.0156H90V105.016H209.5V79.5156Z" fill="#87F8F4"/>
<path d="M516.5 64.0156H485.5V105.016H543.228L516.5 64.0156Z" fill="#87F8F4"/>
<path d="M574 64.0156H538L563.75 103.516H599.5L574 64.0156Z" fill="#87F8F4"/>
<path d="M589.5 143.016H625L599.5 103.516H563.75L589.5 143.016Z" fill="#00D3D8"/>
<path d="M13 47.0148V181.016H52V129.516V76.1607V32.5156C49.6 19.3156 34.3013 15.349 26.9519 15.0156C18.0195 25.2321 13.9861 38.4089 13 47.0148Z" fill="#C5324F"/>
<path d="M0 303.516C0 309.516 5 312.016 7.5 312.516H36.5V280.516C36.5 275.716 31.5 274.182 29 274.016H13H7.5C3.1 274.016 1.33333 278.349 1 280.516L0 303.516Z" fill="#596775"/>
<path d="M447.5 143.016H485.5H568L543.228 105.016H485.5V64.0156H463.5C458.167 65.849 447.5 71.5156 447.5 79.5156V143.016Z" fill="#00D3D8"/>
<path fill-rule="evenodd" clip-rule="evenodd" d="M488.5 0.0148146H62C45.9178 -0.354892 34.6266 6.23768 26.9519 15.0156C34.3013 15.349 49.6 19.3156 52 32.5156V76.1607C54.8329 70.8322 60.5531 64.0156 69 64.0156H90H194C199 65.6823 209.1 71.1156 209.5 79.5156V105.016V125.016C210 129.349 208.2 139.016 197 143.016H69C63.3333 141.349 52 136.316 52 129.516V181.016H447.5V143.016V79.5156C447.5 71.5156 458.167 65.849 463.5 64.0156H485.5H516.5L543.228 105.016L568 143.016H485.5V181.016H636V153.016C635.2 146.616 628.333 143.682 625 143.016H589.5L563.75 103.516L538 64.0156H574C579.6 61.2156 578.333 51.5151 577 47.0148C562.6 20.6142 512 4.68121 488.5 0.0148146ZM287.5 64.0156H390.5C396.333 65.1823 408 69.9156 408 79.5156V105.016V129.516C406.833 133.849 402.6 142.516 395 142.516H267C261.167 141.516 249.5 136.616 249.5 125.016V79.5156C251.167 74.349 256.2 64.0156 263 64.0156H287.5Z" fill="#FF5368"/>
</svg>
