<svg width="581" height="372" viewBox="0 0 581 372" fill="none" xmlns="http://www.w3.org/2000/svg">
<path fill-rule="evenodd" clip-rule="evenodd" d="M117.675 371.356C182.665 371.356 235.35 318.671 235.35 253.681C235.35 188.691 182.665 136.006 117.675 136.006C52.6849 136.006 0 188.691 0 253.681C0 318.671 52.6849 371.356 117.675 371.356ZM117.675 305.127C146.414 305.127 169.712 281.829 169.712 253.089C169.712 224.35 146.414 201.052 117.675 201.052C88.9353 201.052 65.6374 224.35 65.6374 253.089C65.6374 281.829 88.9353 305.127 117.675 305.127Z" fill="#5C6474"/>
<path d="M206.949 304.399C214.152 308.491 216.746 317.72 211.772 324.344C204.029 334.654 194.624 343.65 183.911 350.945C169.052 361.063 152.073 367.643 134.277 370.179C116.48 372.715 98.3388 371.14 81.2455 365.575C64.1522 360.01 48.5611 350.603 35.6688 338.075C22.7764 325.548 12.9256 310.233 6.87232 293.306C0.819023 276.38 -1.27583 258.291 0.748528 240.429C2.77289 222.567 8.86265 205.406 18.5504 190.264C25.5356 179.346 34.2574 169.686 44.341 161.651C50.8199 156.488 60.119 158.816 64.4161 165.899L65.7711 168.132C70.0683 175.215 67.697 184.352 61.4781 189.825C55.5277 195.062 50.3199 201.121 46.0216 207.839C39.0187 218.785 34.6167 231.19 33.1533 244.102C31.69 257.014 33.2043 270.089 37.58 282.325C41.9557 294.56 49.0765 305.631 58.3958 314.686C67.7152 323.742 78.9854 330.542 91.3415 334.565C103.698 338.588 116.811 339.726 129.676 337.893C142.54 336.06 154.814 331.304 165.554 323.99C172.146 319.5 178.054 314.121 183.117 308.023C188.41 301.649 197.475 299.017 204.678 303.109L206.949 304.399Z" fill="#34444C"/>
<path fill-rule="evenodd" clip-rule="evenodd" d="M462.419 371.356C527.409 371.356 580.094 318.671 580.094 253.681C580.094 188.691 527.409 136.006 462.419 136.006C397.429 136.006 344.744 188.691 344.744 253.681C344.744 318.671 397.429 371.356 462.419 371.356ZM462.419 305.127C491.158 305.127 514.456 281.829 514.456 253.089C514.456 224.35 491.158 201.052 462.419 201.052C433.679 201.052 410.382 224.35 410.382 253.089C410.382 281.829 433.679 305.127 462.419 305.127Z" fill="#5C6474"/>
<path d="M551.693 304.399C558.896 308.491 561.49 317.72 556.516 324.344C548.773 334.654 539.368 343.65 528.655 350.945C513.796 361.063 496.817 367.643 479.021 370.179C461.224 372.715 443.083 371.14 425.99 365.575C408.896 360.01 393.305 350.603 380.413 338.075C367.521 325.548 357.67 310.233 351.616 293.306C345.563 276.38 343.468 258.291 345.493 240.429C347.517 222.567 353.607 205.406 363.295 190.264C370.28 179.346 379.002 169.686 389.085 161.651C395.564 156.488 404.863 158.816 409.16 165.899L410.515 168.132C414.812 175.215 412.441 184.352 406.222 189.825C400.272 195.062 395.064 201.121 390.766 207.839C383.763 218.785 379.361 231.19 377.897 244.102C376.434 257.014 377.948 270.089 382.324 282.325C386.7 294.56 393.821 305.631 403.14 314.686C412.459 323.742 423.73 330.542 436.086 334.565C448.442 338.588 461.555 339.726 474.42 337.893C487.284 336.06 499.558 331.304 510.298 323.99C516.891 319.5 522.798 314.121 527.862 308.023C533.154 301.649 542.219 299.017 549.422 303.109L551.693 304.399Z" fill="#34444C"/>
<path d="M62.0894 79.699C99.084 85.3822 156.169 100.842 200.461 128.307C210.75 134.687 220.349 141.715 228.845 149.419C251.005 169.512 265.664 194.202 265.508 223.984C266.887 231.08 275.442 245.982 298.622 248.82H344.746L351.251 217.479H298.622C292.315 175.889 252.853 87.9776 145.467 69.055L50.2628 44.219C45.5321 49.3439 41.2745 63.6147 62.0894 79.699Z" fill="#00BD4F"/>
<path d="M145.467 69.055C252.853 87.9776 292.315 175.889 298.622 217.479H351.251C371.947 172.078 398.209 150.627 427.533 141.931C438.223 138.761 448.419 137.269 457.099 136.895C461.223 136.717 465.004 136.792 468.335 137.058H525.694C555.97 138.95 563.539 118.135 563.539 107.491C566.377 81.9458 539.491 48.3581 525.694 34.7575L471.882 89.1601C466.614 94.209 461.481 96.2274 457.099 96.6453C452.038 97.128 447.977 95.4754 445.864 93.8907L405.062 53.0888C357.755 20.4472 312.026 39.4881 295.074 53.0888L279.571 69.055L255.455 93.8907C232.367 66.6389 165.594 45.8981 116.803 34.7575C104.612 31.974 93.5438 29.7898 84.5598 28.253C65.6372 20.684 53.8107 35.7433 50.2628 44.219L145.467 69.055Z" fill="#4FE267"/>
<path d="M471.882 89.1601L525.694 34.7575L484.892 3.41688C466.442 -6.5175 458.676 7.5562 457.099 15.8349V96.6453C461.481 96.2274 466.614 94.209 471.882 89.1601Z" fill="#00D3D8"/>
<path d="M255.455 93.8907L279.571 69.055C246.499 47.1756 173.378 3.41688 145.467 3.41688C132.665 4.07672 109.009 11.2686 116.803 34.7575C165.594 45.8981 232.367 66.6389 255.455 93.8907Z" fill="#35404A"/>
<path d="M200.461 128.307L102.3 248.82C102.497 257.536 107.267 274.023 124.77 270.239L228.845 149.419C220.349 141.715 210.75 134.687 200.461 128.307Z" fill="#8B9BA9"/>
<path d="M427.533 141.931L451.186 259.004C456.311 262.552 468.216 266.809 474.839 255.456L457.099 136.895C448.419 137.269 438.223 138.761 427.533 141.931Z" fill="#8B9BA9"/>
<circle cx="458.872" cy="82.1955" r="15.966" fill="#8B9BA9"/>
</svg>
